<svg width="20" height="15" viewBox="0 0 20 15" fill="none" xmlns="http://www.w3.org/2000/svg">
<path d="M19.375 6.08359C19.3612 5.9226 19.2868 5.77285 19.1669 5.66454C19.047 5.55623 18.8905 5.49743 18.7289 5.5H18.125C18.125 5.45588 18.1202 5.41188 18.1109 5.36875L17.2797 1.48828C17.2187 1.20903 17.0643 0.958924 16.8421 0.779246C16.6198 0.599569 16.3429 0.501065 16.057 0.5H3.94297C3.65714 0.501065 3.38023 0.599569 3.15794 0.779246C2.93565 0.958924 2.78128 1.20903 2.72031 1.48828L1.88906 5.36875C1.87976 5.41188 1.87504 5.45588 1.875 5.5H1.27109C1.10953 5.49743 0.953008 5.55623 0.8331 5.66454C0.713192 5.77285 0.638824 5.9226 0.625 6.08359C0.619323 6.16909 0.631286 6.25483 0.660143 6.33551C0.689001 6.41618 0.734137 6.49006 0.792749 6.55255C0.851362 6.61505 0.922198 6.66483 1.00086 6.69879C1.07952 6.73276 1.16432 6.75019 1.25 6.75H1.875V13.625C1.875 13.9565 2.0067 14.2745 2.24112 14.5089C2.47554 14.7433 2.79348 14.875 3.125 14.875H5C5.33152 14.875 5.64946 14.7433 5.88388 14.5089C6.1183 14.2745 6.25 13.9565 6.25 13.625V12.375H7.8125C7.89538 12.375 7.97487 12.3421 8.03347 12.2835C8.09208 12.2249 8.125 12.1454 8.125 12.0625V8.02109C8.12283 7.8598 8.18181 7.70366 8.29008 7.58409C8.39835 7.46451 8.54788 7.39037 8.70859 7.37656C8.79409 7.37089 8.87983 7.38285 8.96051 7.41171C9.04118 7.44056 9.11506 7.4857 9.17755 7.54431C9.24005 7.60292 9.28983 7.67376 9.32379 7.75242C9.35776 7.83108 9.37519 7.91588 9.375 8.00156V12.0641C9.375 12.1469 9.40792 12.2264 9.46653 12.285C9.52513 12.3436 9.60462 12.3766 9.6875 12.3766H10.3125C10.3954 12.3766 10.4749 12.3436 10.5335 12.285C10.5921 12.2264 10.625 12.1469 10.625 12.0641V8.02109C10.6228 7.8598 10.6818 7.70366 10.7901 7.58409C10.8983 7.46451 11.0479 7.39037 11.2086 7.37656C11.2941 7.37089 11.3798 7.38285 11.4605 7.41171C11.5412 7.44056 11.6151 7.4857 11.6776 7.54431C11.74 7.60292 11.7898 7.67376 11.8238 7.75242C11.8578 7.83108 11.8752 7.91588 11.875 8.00156V12.0641C11.875 12.1469 11.9079 12.2264 11.9665 12.285C12.0251 12.3436 12.1046 12.3766 12.1875 12.3766H13.75V13.6266C13.75 13.9581 13.8817 14.276 14.1161 14.5104C14.3505 14.7449 14.6685 14.8766 15 14.8766H16.875C17.2065 14.8766 17.5245 14.7449 17.7589 14.5104C17.9933 14.276 18.125 13.9581 18.125 13.6266V6.75H18.75C18.8357 6.75019 18.9205 6.73276 18.9991 6.69879C19.0778 6.66483 19.1486 6.61505 19.2073 6.55255C19.2659 6.49006 19.311 6.41618 19.3399 6.33551C19.3687 6.25483 19.3807 6.16909 19.375 6.08359ZM5.3125 9.25C5.12708 9.25 4.94582 9.19502 4.79165 9.092C4.63748 8.98899 4.51732 8.84257 4.44636 8.67126C4.37541 8.49996 4.35684 8.31146 4.39301 8.1296C4.42919 7.94775 4.51848 7.7807 4.64959 7.64959C4.7807 7.51848 4.94775 7.42919 5.1296 7.39301C5.31146 7.35684 5.49996 7.37541 5.67127 7.44636C5.84257 7.51732 5.98899 7.63748 6.092 7.79165C6.19502 7.94582 6.25 8.12708 6.25 8.3125C6.25 8.56114 6.15123 8.7996 5.97541 8.97541C5.7996 9.15123 5.56114 9.25 5.3125 9.25ZM14.6875 9.25C14.5021 9.25 14.3208 9.19502 14.1667 9.092C14.0125 8.98899 13.8923 8.84257 13.8214 8.67126C13.7504 8.49996 13.7318 8.31146 13.768 8.1296C13.8042 7.94775 13.8935 7.7807 14.0246 7.64959C14.1557 7.51848 14.3227 7.42919 14.5046 7.39301C14.6865 7.35684 14.875 7.37541 15.0463 7.44636C15.2176 7.51732 15.364 7.63748 15.467 7.79165C15.57 7.94582 15.625 8.12708 15.625 8.3125C15.625 8.56114 15.5262 8.7996 15.3504 8.97541C15.1746 9.15123 14.9361 9.25 14.6875 9.25ZM3.13906 5.5L3.94297 1.75H16.057L16.8609 5.5H3.13906Z" fill="#808080"/>
</svg>
